<?xml version="1.0" encoding="UTF-8"?>
<svg width="1266px" height="493px" viewBox="0 0 1266 493" version="1.1" xmlns="http://www.w3.org/2000/svg" xmlns:xlink="http://www.w3.org/1999/xlink">
    <!-- Generator: Sketch 48.1 (47250) - http://www.bohemiancoding.com/sketch -->
    <title>RIDE-Logo</title>
    <desc>Created with Sketch.</desc>
    <defs>
        <linearGradient x1="21.6910549%" y1="-13.1948981%" x2="43.3841766%" y2="139.816766%" id="linearGradient-1">
            <stop stop-color="#48FFAF" offset="0%"></stop>
            <stop stop-color="#B6B6B6" offset="100%"></stop>
        </linearGradient>
    </defs>
    <g id="Logo" stroke="none" stroke-width="1" fill="none" fill-rule="evenodd">
        <g id="RIDE-Logo" fill="url(#linearGradient-1)">
            <path d="M372.947029,293.230254 L451.602933,396.793552 L360.32771,396.793552 L294.245896,308.05091 L247.070446,308.05091 L247.070446,396.793552 L171.083144,396.793552 L171.083144,239.61302 L303.246772,239.61302 C333.37031,239.61302 355.397581,222.934117 355.397581,198.187701 C355.397581,174.302424 333.37031,157.62352 303.246772,157.62352 L294.833893,157.62352 L294.833893,90.5 L304.603689,90.5 C342.823492,90.5 373.80641,100.42576 396.738292,119.774194 C419.670174,139.177016 431.339652,165.283125 431.339652,198.187701 C431.339652,240.066251 410.216992,274.738427 372.947029,293.230254 Z M500.238095,402.5 L500.238095,95.1351997 L571.47619,95.1351997 L571.47619,402.5 L500.238095,402.5 Z M900.180782,138.069851 C931.609802,166.586828 947.095238,203.199533 947.095238,247.903419 C947.095238,293.571516 931.609802,330.639038 900.180782,359.565349 C868.751761,388.036844 828.70954,402.5 779.962487,402.5 L655.666667,402.5 L655.666667,95.1351997 L779.962487,95.1351997 C828.70954,95.1351997 868.751761,109.598355 900.180782,138.069851 Z M843.278677,309.39912 C860.13856,292.661883 868.751761,272.331598 868.751761,247.903419 C868.751761,223.984634 860.13856,204.063684 843.278677,188.281561 C826.418795,171.999141 805.023237,163.85793 779.962487,163.85793 L732.635697,163.85793 L732.635697,333.822751 L779.962487,333.822751 C805.023237,333.822751 826.418795,325.681541 843.278677,309.39912 Z M1245,161.583849 L1088.52185,161.583849 L1088.52185,217.662689 L1225.46875,217.662689 L1225.46875,282.74689 L1088.52185,282.74689 L1088.52185,336.051351 L1245,336.051351 L1245,402.5 L1011.85714,402.5 L1011.85714,95.1351997 L1245,95.1351997 L1245,161.583849 Z M21,402.5 L21,310.944528 L92.2380952,310.944528 L92.2380952,402.5 L21,402.5 Z" id="Combined-Shape-Copy-2"></path>
        </g>
    </g>
</svg>